<?xml version="1.0" standalone="no"?>
<!DOCTYPE svg PUBLIC "-//W3C//DTD SVG 20010904//EN"
 "http://www.w3.org/TR/2001/REC-SVG-20010904/DTD/svg10.dtd">
<svg version="1.0" xmlns="http://www.w3.org/2000/svg"
 width="741.000000pt" height="595.000000pt" viewBox="0 0 741.000000 595.000000"
 preserveAspectRatio="xMidYMid meet">

<g transform="translate(0.000000,595.000000) scale(0.100000,-0.100000)"
fill="#000000" stroke="none">
<path d="M410 4055 c0 -1508 3 -1896 13 -1900 6 -2 26 -6 42 -9 17 -2 118 -21
225 -41 306 -57 464 -85 480 -84 15 1 -130 32 -205 44 -22 3 -56 10 -75 15
-19 4 -57 11 -85 15 -27 3 -74 13 -104 22 -29 8 -65 16 -80 18 -14 2 -60 10
-101 18 -41 9 -78 13 -82 11 -5 -3 -8 126 -7 286 1 160 6 285 10 278 10 -16
21 9 18 43 -3 39 0 59 11 59 6 0 9 -10 7 -22 -2 -13 -2 -17 0 -10 5 14 83 17
83 2 0 -5 9 -10 20 -10 11 0 20 7 20 15 0 18 12 19 27 4 8 -8 13 -8 17 0 4 6
2 11 -3 11 -6 0 -11 5 -11 12 0 6 3 8 7 5 3 -4 12 -2 20 4 9 9 13 8 13 0 0 -6
5 -11 10 -11 6 0 10 10 10 21 0 18 2 19 15 9 11 -9 15 -9 15 -1 0 7 4 10 9 7
4 -3 19 3 31 14 32 28 44 25 24 -5 -9 -14 -20 -25 -24 -25 -5 0 -6 -9 -3 -20
8 -28 19 -25 35 10 10 25 17 30 36 25 21 -5 21 -4 10 15 -11 17 -11 22 1 29 9
6 10 11 2 15 -26 16 -7 26 48 26 33 0 72 5 88 12 27 12 26 12 -32 18 -33 4
-53 7 -44 8 9 1 19 11 22 22 4 15 14 20 41 20 24 0 36 -5 36 -14 0 -8 14 -15
35 -18 43 -5 42 15 -1 22 -26 5 -27 7 -10 17 10 5 28 8 39 5 16 -4 19 -2 14
11 -4 10 -2 17 5 17 7 0 9 -13 5 -36 -8 -48 14 -74 40 -48 10 10 13 19 7 21
-12 4 -6 71 7 79 5 3 9 -6 9 -20 0 -14 5 -26 10 -26 6 0 10 17 10 39 0 30 5
42 25 55 27 17 65 22 65 7 0 -5 9 -13 21 -16 15 -5 18 -10 10 -18 -14 -14 -14
-37 -1 -37 6 0 10 9 10 20 0 10 9 24 19 30 16 8 19 20 18 68 -1 44 1 57 13 57
8 0 16 9 17 20 2 11 0 14 -3 7 -7 -15 -24 -6 -24 14 0 8 3 13 8 10 4 -2 18 2
32 10 l25 13 -24 1 -23 0 23 25 c22 22 67 36 55 17 -3 -5 36 -7 86 -5 73 3 90
1 85 -9 -4 -11 13 -14 79 -12 46 0 84 -3 84 -7 0 -5 16 -9 35 -9 19 0 35 -4
35 -10 0 -5 15 -9 33 -9 l32 1 -30 8 -30 7 38 8 c27 5 42 4 50 -5 10 -10 8
-12 -6 -7 -10 4 -16 3 -13 -2 3 -5 15 -11 26 -14 20 -5 22 7 5 46 -9 20 -1 32
14 22 6 -3 11 -19 11 -35 0 -33 23 -50 65 -50 14 0 28 -7 31 -15 5 -12 9 -12
30 3 13 9 24 20 24 25 0 12 -28 8 -33 -5 -3 -7 -5 -4 -4 8 1 16 8 20 34 21 18
1 35 -3 38 -7 3 -4 -5 -6 -17 -3 -19 4 -20 3 -8 -6 13 -10 12 -14 -7 -30 -40
-34 -32 -43 42 -45 22 -1 33 -8 43 -28 15 -31 37 -38 27 -9 -3 10 -1 29 4 42
10 23 10 23 11 -6 1 -40 24 -69 57 -70 14 0 28 -6 31 -14 3 -10 0 -12 -12 -8
-21 8 -20 -1 2 -26 12 -15 14 -21 4 -24 -6 -3 -12 -10 -12 -16 0 -8 3 -8 12 1
9 9 19 6 44 -13 18 -14 38 -25 43 -25 8 0 7 -7 -1 -20 -10 -15 -10 -22 0 -32
9 -9 12 -8 12 5 0 9 4 17 8 17 18 0 20 -13 4 -43 -32 -66 -32 -67 -18 -61 11
4 13 -4 9 -40 -4 -31 -2 -46 6 -46 6 0 11 -7 11 -15 0 -8 -4 -15 -10 -15 -5 0
-10 7 -10 15 0 8 -4 15 -10 15 -13 0 -13 -26 0 -51 8 -13 7 -19 0 -19 -6 0 -8
-5 -4 -12 5 -8 2 -9 -10 -5 -11 4 -15 3 -11 -4 4 -6 -1 -17 -11 -24 -18 -13
-18 -14 -1 -15 12 0 17 -8 17 -31 0 -18 -4 -28 -10 -24 -11 7 -26 -22 -16 -32
3 -4 12 -1 18 5 7 7 16 12 22 12 5 0 3 -6 -6 -12 -9 -7 -21 -30 -26 -51 -9
-31 -8 -37 5 -37 23 0 9 -25 -16 -28 -16 -3 -20 -8 -16 -23 4 -13 2 -19 -9
-19 -8 0 -16 12 -19 28 -4 24 -4 24 -6 -6 -1 -26 4 -35 19 -39 11 -3 20 -14
20 -24 0 -11 7 -19 15 -19 23 0 18 -17 -6 -23 -20 -5 -20 -7 -5 -22 22 -22 20
-45 -4 -45 -11 0 -20 -5 -20 -11 0 -6 9 -8 20 -4 25 8 27 -12 3 -32 -17 -14
-17 -14 -1 -9 23 7 23 -6 0 -27 -24 -22 -32 -21 -32 3 0 11 -4 20 -9 20 -4 0
-8 -13 -7 -30 1 -28 8 -34 44 -33 14 1 15 -7 3 -26 -5 -8 -16 -11 -24 -8 -10
4 -14 1 -11 -7 6 -16 -31 -50 -45 -41 -7 3 -8 0 -5 -9 3 -9 1 -16 -5 -16 -7 0
-8 -16 -4 -47 7 -50 10 -48 -44 -26 -7 3 -13 0 -13 -6 0 -6 5 -11 10 -11 6 0
10 -8 10 -17 0 -12 3 -14 8 -6 5 8 13 9 22 3 13 -8 12 -10 -2 -10 -10 0 -18
-4 -18 -10 0 -5 -7 -7 -15 -4 -8 4 -22 0 -31 -7 -13 -10 -17 -10 -26 2 -8 11
-9 11 -4 -3 3 -10 1 -18 -5 -18 -6 0 -9 -7 -6 -15 4 -8 2 -17 -3 -20 -6 -4
-10 3 -10 15 0 12 -5 20 -11 18 -6 -2 -9 -6 -8 -8 8 -15 -25 -50 -46 -50 -13
0 -27 -4 -30 -10 -3 -5 -1 -10 5 -10 6 0 9 -4 6 -9 -3 -4 -28 -11 -56 -15 -29
-4 -48 -11 -45 -17 4 -5 11 -7 16 -4 5 4 9 4 9 0 0 -12 -53 -26 -60 -15 -4 6
-12 0 -20 -15 -7 -14 -21 -25 -31 -25 -15 0 -16 -5 -7 -42 5 -23 14 -48 20
-55 7 -9 7 -13 -1 -13 -6 0 -14 12 -17 26 -5 18 -12 24 -25 21 -12 -3 -16 0
-12 9 3 8 10 14 15 14 7 0 6 5 -1 13 -6 8 -8 17 -4 21 4 4 -1 4 -12 0 -11 -5
-14 -9 -7 -12 7 -2 12 -8 12 -14 0 -6 -7 -8 -15 -4 -8 3 -14 2 -12 -2 1 -4
-11 -20 -26 -36 -27 -27 -27 -29 -11 -47 13 -14 14 -22 5 -33 -10 -12 -55 -28
-88 -30 -20 -2 -20 -19 0 -22 33 -5 31 -14 -3 -14 -25 0 -30 -3 -22 -13 6 -7
7 -18 3 -25 -9 -15 -2 -72 9 -72 4 0 10 -11 13 -25 3 -17 0 -24 -7 -22 -6 3
-10 9 -9 15 1 5 -4 15 -11 21 -11 10 -15 3 -18 -34 -3 -41 -1 -44 17 -39 20 5
20 5 1 -10 -23 -18 -46 -21 -46 -5 0 5 -5 7 -12 3 -8 -5 0 -13 22 -22 26 -10
30 -16 19 -23 -11 -7 -10 -9 6 -9 19 -1 19 -1 2 -14 -14 -11 -15 -15 -5 -19
11 -4 11 -6 0 -6 -7 -1 -10 -6 -6 -13 5 -8 2 -9 -10 -5 -9 4 -28 0 -41 -9 -13
-9 -30 -12 -37 -8 -9 5 -10 4 -3 -4 11 -12 68 -4 60 8 -3 5 5 6 17 2 21 -5 21
-5 1 -13 -25 -9 -36 -46 -16 -53 8 -3 11 -10 8 -16 -4 -6 -10 -8 -15 -5 -4 3
-11 -1 -13 -7 -4 -10 -8 -9 -16 2 -12 18 -24 9 -15 -14 7 -17 34 -22 34 -6 0
6 5 10 10 10 7 0 9 -14 5 -37 -5 -28 -4 -34 4 -23 10 15 13 11 15 -20 1 -8 10
-15 21 -16 37 -2 45 -4 45 -12 0 -4 -18 -8 -40 -8 -22 -1 -40 2 -40 7 0 5 -7
6 -15 3 -8 -4 -15 -2 -15 4 0 6 6 13 13 15 6 3 3 6 -9 6 -12 1 -26 12 -32 27
-16 33 -35 22 -22 -12 15 -39 12 -54 -12 -54 -17 0 -19 3 -10 12 15 15 16 32
2 23 -6 -3 -10 -1 -10 5 0 7 -8 9 -20 5 -11 -4 -20 -2 -20 4 0 6 5 11 10 11 6
0 10 9 10 20 0 11 5 20 10 20 6 0 10 5 10 10 0 23 -19 7 -38 -32 -13 -28 -16
-45 -10 -49 6 -4 8 -11 4 -17 -3 -5 1 -15 10 -22 12 -11 12 -15 2 -21 -23 -15
-36 -10 -31 11 5 20 -13 53 -26 46 -3 -2 -12 2 -18 10 -8 8 -9 15 -3 19 6 4 7
12 3 18 -11 17 -11 117 -1 117 5 0 6 6 1 13 -4 6 -9 41 -10 77 -1 36 -2 73 -2
83 -1 10 -5 16 -10 13 -5 -4 -10 -247 -10 -579 l-1 -572 -26 -22 c-31 -28 -46
-28 -165 -4 -71 15 -375 71 -454 84 -5 1 -9 -14 -10 -34 0 -50 -21 -72 -59
-64 -17 3 -69 13 -116 21 -47 8 -93 17 -102 20 -16 5 -18 -4 -18 -85 l0 -91
3500 0 3500 0 0 439 0 440 -52 10 c-172 33 -218 41 -259 45 -25 2 -127 18
-225 36 -131 24 -185 38 -201 52 -12 11 -26 17 -32 14 -7 -5 -8 -1 -4 10 3 10
2 15 -3 12 -5 -4 -8 131 -6 340 1 190 1 344 -2 341 -2 -2 -7 -94 -10 -204 -3
-110 -9 -213 -11 -230 -3 -16 -6 -35 -7 -41 -1 -7 -8 -11 -17 -9 -9 1 -29 -4
-46 -13 -16 -8 -41 -18 -55 -22 -20 -6 -16 -8 17 -7 23 1 37 4 31 8 -16 10 33
22 63 16 21 -4 20 -4 -5 -6 -16 0 -34 -8 -40 -17 -8 -10 -27 -16 -52 -16 -32
0 -35 -2 -16 -9 12 -5 22 -13 22 -19 0 -5 4 -10 10 -10 5 0 7 6 4 14 -6 16 38
27 58 14 10 -7 10 -8 -2 -7 -28 3 -41 -1 -36 -10 3 -5 -1 -11 -9 -15 -19 -7
-47 3 -39 15 3 5 -2 9 -11 9 -9 0 -13 -5 -10 -10 3 -5 -3 -10 -14 -10 -11 0
-26 -8 -33 -17 -15 -21 -44 -28 -53 -13 -3 5 3 10 13 10 11 0 23 7 26 16 9 24
7 29 -6 16 -7 -7 -20 -12 -30 -12 -10 0 -18 -5 -18 -10 0 -7 -6 -7 -19 0 -25
13 -71 13 -71 0 0 -11 39 -23 59 -18 8 2 16 -3 18 -9 3 -7 -2 -13 -11 -13 -9
0 -16 -7 -16 -15 0 -9 -9 -15 -21 -15 -12 0 -23 -8 -26 -20 -3 -11 -9 -20 -14
-20 -5 0 -7 11 -3 25 5 21 3 24 -11 19 -11 -5 -13 -9 -5 -14 8 -5 7 -11 -4
-23 -9 -8 -16 -26 -17 -39 -1 -20 -2 -19 -10 7 -4 16 -9 178 -9 360 0 181 -3
358 -6 392 -14 135 -3 140 226 97 96 -19 185 -36 198 -39 l22 -5 0 229 c0 255
2 261 64 261 18 0 181 -29 362 -65 181 -36 335 -65 342 -65 18 0 17 1416 -1
1423 -8 4 -9 8 -1 14 14 11 14 41 -1 47 -17 6 -44 -14 -27 -21 17 -7 5 -23
-13 -16 -8 3 -15 1 -15 -5 0 -6 -12 -15 -27 -20 -28 -10 -27 -10 10 -11 34 -1
56 -21 21 -21 -8 0 -12 -4 -9 -10 3 -5 1 -10 -4 -10 -6 0 -11 -6 -11 -14 0
-17 -43 -26 -87 -19 -36 6 -43 19 -15 26 10 3 6 5 -11 6 -16 1 -26 -4 -25 -11
2 -7 -2 -12 -9 -13 -22 0 -26 -15 -5 -15 12 0 22 -4 22 -10 0 -5 -9 -10 -20
-10 -11 0 -20 -4 -20 -10 0 -5 -7 -10 -15 -10 -8 0 -15 -9 -15 -19 0 -14 -5
-18 -20 -14 -11 3 -27 -1 -36 -8 -13 -10 -17 -10 -25 2 -6 10 -2 19 13 30 20
16 18 16 -32 11 -55 -5 -110 -40 -110 -69 0 -7 -6 -14 -12 -14 -7 -1 1 -4 17
-8 25 -5 30 -11 29 -34 -1 -15 3 -27 7 -27 5 0 9 -5 9 -11 0 -7 -17 -10 -45
-7 -29 2 -45 -1 -45 -8 0 -12 -35 -25 -44 -17 -3 3 5 14 17 25 18 16 19 19 4
14 -10 -3 -16 -2 -13 3 3 5 -4 12 -17 15 l-22 6 24 21 c14 11 33 18 43 16 10
-3 16 -1 12 4 -3 5 0 9 6 9 6 0 15 11 22 25 8 19 8 28 -2 40 -13 16 -35 21
-25 6 3 -5 -3 -12 -12 -14 -14 -4 -13 -5 5 -6 43 -2 22 -21 -25 -22 -27 -1
-38 -4 -25 -6 12 -2 22 -11 22 -20 0 -10 -6 -14 -20 -10 -10 3 -19 2 -18 -2 2
-21 -4 -31 -21 -31 -28 0 -52 11 -45 21 3 5 -13 9 -35 9 -23 0 -41 -5 -41 -11
0 -7 10 -9 24 -5 14 3 28 2 31 -4 4 -6 -5 -10 -19 -10 -14 0 -26 -4 -26 -10 0
-5 21 -9 48 -9 89 2 90 1 87 -26 -3 -34 -9 -39 -33 -26 -22 12 -52 5 -52 -10
0 -6 -12 -8 -26 -7 -15 2 -29 -3 -31 -9 -7 -18 45 -16 63 2 17 17 59 21 49 5
-3 -5 -12 -10 -20 -10 -7 0 -21 -7 -29 -16 -13 -13 -22 -14 -51 -4 -21 7 -35
18 -36 28 0 14 -2 14 -6 2 -3 -8 -11 -18 -17 -22 -7 -5 -4 -8 7 -8 9 0 17 -4
17 -10 0 -5 10 -11 23 -11 20 -1 20 -2 2 -6 -11 -3 -23 -10 -27 -17 -5 -6 -8
-2 -8 12 0 13 -6 22 -15 22 -10 0 -15 -10 -15 -32 -1 -28 -3 -31 -13 -18 -9
12 -25 15 -59 12 -39 -3 -48 -1 -48 12 0 25 -30 19 -31 -6 0 -13 -2 -41 -5
-63 -2 -22 -6 -86 -8 -143 -5 -140 -20 -155 -138 -136 -21 4 -38 11 -38 15 0
5 3 8 8 8 4 -1 20 -1 36 0 24 1 27 4 23 24 -4 12 -2 29 3 37 5 9 5 19 -2 27
-13 16 -17 72 -6 79 5 3 15 0 23 -6 21 -17 38 -3 25 20 -15 27 -60 22 -71 -7
-12 -31 -20 -29 -17 6 1 17 7 28 16 27 8 -1 17 5 20 13 3 8 0 11 -7 7 -7 -5
-11 1 -11 13 0 12 -4 21 -10 21 -5 0 -10 -9 -10 -21 0 -11 -5 -17 -10 -14 -6
4 -8 21 -4 41 5 29 3 34 -12 35 -28 2 -37 4 -61 12 -35 13 -28 30 10 22 26 -5
29 -4 14 5 -14 9 -16 15 -6 26 9 11 8 14 -6 14 -10 0 -23 -6 -29 -14 -10 -13
-13 -13 -24 0 -7 8 -8 14 -2 14 5 0 10 5 10 10 0 6 -11 8 -25 4 -28 -7 -34 11
-15 47 7 13 7 19 0 19 -5 0 -10 -7 -10 -15 0 -11 -12 -15 -44 -15 -42 0 -70
15 -119 63 -14 14 -30 18 -68 15 -39 -2 -46 -1 -34 9 18 12 13 17 -29 27 -23
6 -27 11 -23 31 3 17 0 25 -9 25 -8 0 -14 6 -14 13 0 9 -3 8 -9 -2 -6 -10 -19
-12 -45 -7 -40 8 -41 9 -25 37 9 17 7 21 -10 26 -14 4 -21 13 -21 30 0 22 -3
24 -26 19 -17 -5 -23 -3 -19 4 3 5 -1 10 -10 10 -12 0 -15 5 -11 16 3 9 6 18
6 20 0 2 7 4 15 4 8 0 15 7 15 16 0 11 -6 15 -20 11 -16 -4 -18 -2 -10 13 15
27 2 51 -24 45 -24 -6 -59 13 -38 22 6 2 12 16 12 29 0 14 5 24 13 23 27 -3
37 2 37 19 0 13 -2 14 -9 3 -12 -19 -24 4 -16 30 6 18 4 20 -14 14 -13 -4 -21
-2 -21 5 0 6 5 8 10 5 6 -3 10 3 10 14 0 12 -6 20 -12 18 -20 -4 -21 40 -1 55
14 10 17 20 12 43 -5 23 -7 25 -8 8 -2 -37 -21 -26 -21 12 0 28 -4 35 -20 35
-17 0 -24 9 -22 30 0 3 4 13 7 23 5 12 2 17 -9 17 -9 0 -16 5 -16 10 0 6 9 10
20 10 11 0 20 4 20 9 0 5 -9 11 -20 14 -15 4 -20 14 -20 41 0 20 5 36 10 36
23 0 8 39 -20 52 -16 7 -30 16 -30 20 0 5 -4 8 -10 8 -17 0 -11 -18 15 -44 17
-17 21 -27 13 -32 -6 -4 -14 -2 -16 4 -5 15 -32 16 -32 2 0 -5 -5 -10 -11 -10
-8 0 -7 5 1 15 11 13 10 21 0 43 -13 26 -14 26 -18 5 -2 -13 -7 -23 -12 -23
-5 0 -7 7 -4 15 4 8 2 21 -4 28 -6 6 -12 16 -14 22 -1 5 -11 8 -20 7 -23 -4
-23 14 -2 26 22 12 8 35 -17 29 -11 -3 -19 -1 -19 4 0 5 7 9 15 9 8 0 15 5 15
10 0 6 -7 10 -15 10 -8 0 -15 5 -15 11 0 5 -5 7 -10 4 -6 -3 -7 -17 -4 -31 4
-15 2 -24 -6 -24 -7 0 -10 6 -7 13 2 6 1 22 -4 34 -6 15 -14 20 -28 16 -15 -4
-21 -1 -21 11 0 9 -4 16 -10 16 -5 0 -10 -7 -10 -15 0 -9 -9 -15 -22 -15 -42
0 -59 80 -21 95 21 8 31 -4 13 -15 -8 -5 -11 -12 -7 -16 3 -4 13 -1 21 5 12
10 13 16 3 32 -14 22 -37 25 -56 7 -10 -11 -15 -10 -24 3 -7 8 -20 18 -30 22
-24 9 -12 27 19 27 14 0 28 -7 32 -17 5 -14 8 -12 12 12 4 17 3 35 -2 41 -10
13 -60 6 -52 -7 3 -5 -7 -9 -21 -9 -17 0 -25 4 -22 13 2 6 10 11 16 9 7 -1 10
2 6 7 -4 7 -15 7 -33 1 -23 -9 -24 -8 -11 3 16 12 16 14 0 33 -13 16 -22 19
-46 13 -16 -5 -31 -6 -34 -4 -2 3 1 5 8 5 7 0 10 4 7 8 -4 7 10 8 74 3 21 -1
22 -3 10 -12 -13 -9 -13 -10 0 -6 12 3 14 16 11 57 -2 36 0 50 8 46 6 -4 9 -2
6 7 -7 17 38 42 59 34 19 -7 22 -29 4 -26 -30 4 -48 -2 -48 -15 0 -8 -6 -16
-12 -19 -10 -3 -10 -8 1 -18 10 -11 15 -11 18 -1 3 6 10 9 15 6 6 -4 17 1 24
10 8 11 14 13 19 7 13 -21 24 -10 19 18 -5 22 -1 32 21 49 15 12 31 19 36 16
5 -3 6 2 3 10 -5 12 0 16 20 16 17 0 26 -5 26 -16 0 -14 2 -14 16 1 12 11 20
13 29 5 8 -7 15 -7 19 -1 3 5 0 12 -6 14 -9 4 -10 6 -1 6 6 1 15 -3 18 -9 10
-16 35 -12 29 5 -4 8 -12 15 -20 15 -8 0 -14 5 -14 10 0 14 27 12 33 -2 4 -10
6 -10 6 0 1 7 16 12 41 12 57 0 55 28 -2 32 -26 2 2 7 69 12 88 7 110 11 106
22 -5 13 19 19 55 15 8 -1 16 7 19 18 3 12 12 21 19 21 8 0 14 7 14 16 0 14 1
14 16 0 14 -14 17 -14 40 0 25 17 32 34 13 34 -5 0 -8 4 -4 9 3 5 -3 12 -12
14 -14 4 -13 5 5 6 12 1 22 -5 22 -13 0 -7 14 -16 31 -20 50 -10 57 -6 20 10
l-34 14 33 25 c19 14 44 25 56 25 12 0 29 3 38 6 9 3 16 1 16 -4 0 -6 -10 -12
-22 -14 -22 -3 -21 -4 3 -9 15 -3 34 0 45 8 18 14 18 15 1 28 -11 7 -26 11
-35 9 -10 -3 -6 2 8 10 14 8 19 15 13 16 -13 0 -19 30 -6 30 4 0 22 -5 40 -12
39 -14 44 -38 7 -38 -14 0 -23 -4 -19 -10 10 -17 75 -12 75 5 0 9 10 15 26 15
16 0 23 -4 18 -12 -4 -6 -3 -8 3 -5 5 3 8 20 5 37 -3 23 0 30 12 30 9 0 16 -6
17 -12 0 -7 4 -3 10 10 7 19 16 23 41 21 63 -4 78 0 78 21 0 17 7 20 42 20 39
0 40 1 25 18 -20 21 -22 32 -6 32 5 0 7 -5 3 -12 -5 -8 -2 -9 9 -5 12 5 17 1
17 -13 0 -11 7 -20 15 -20 8 0 15 7 15 15 0 8 7 15 15 15 8 0 15 -9 15 -20 0
-11 -6 -20 -14 -20 -8 0 -18 -5 -22 -11 -5 -8 1 -10 20 -7 31 6 45 -14 27 -36
-9 -10 -8 -15 2 -19 16 -6 20 -56 5 -74 -6 -7 -5 -14 2 -18 6 -4 8 -14 6 -23
-3 -10 -1 -24 4 -32 6 -10 10 68 10 226 0 132 3 323 7 422 l6 182 -3016 0
-3017 0 0 -1895z m5975 1363 c6 -4 2 -8 -7 -8 -10 0 -18 7 -18 17 0 9 3 12 8
7 4 -5 12 -12 17 -16z m-288 -60 c-3 -7 -5 -2 -5 12 0 14 2 19 5 13 2 -7 2
-19 0 -25z m58 12 c3 -5 1 -10 -4 -10 -6 0 -11 5 -11 10 0 6 2 10 4 10 3 0 8
-4 11 -10z m-88 -36 c-3 -3 -12 -4 -19 -1 -8 3 -5 6 6 6 11 1 17 -2 13 -5z
m146 -1 c-7 -2 -21 -2 -30 0 -10 3 -4 5 12 5 17 0 24 -2 18 -5z m-163 -53 c0
-5 -9 -10 -21 -10 -11 0 -17 5 -14 10 3 6 13 10 21 10 8 0 14 -4 14 -10z
m-500 -150 c0 -11 -4 -20 -9 -20 -5 0 -7 9 -4 20 3 11 7 20 9 20 2 0 4 -9 4
-20z m102 -22 c-7 -7 -12 -8 -12 -2 0 14 12 26 19 19 2 -3 -1 -11 -7 -17z
m-42 -38 c-19 -13 -30 -13 -30 0 0 6 10 10 23 10 18 0 19 -2 7 -10z m-85 -40
c8 -13 -55 -13 -75 0 -11 7 -4 10 27 10 23 0 45 -4 48 -10z m-428 -126 c-3 -3
-12 -4 -19 -1 -8 3 -5 6 6 6 11 1 17 -2 13 -5z m-1002 -52 c-3 -3 -11 0 -18 7
-9 10 -8 11 6 5 10 -3 15 -9 12 -12z m228 -105 c35 -15 41 -14 38 6 -1 5 3 6
8 2 6 -3 8 -12 4 -20 -3 -10 1 -15 12 -15 10 0 14 5 9 13 -4 6 -4 9 1 5 4 -4
15 -2 23 5 13 10 14 9 7 -2 -6 -11 -4 -13 9 -8 9 4 15 3 11 -2 -3 -5 1 -12 7
-15 7 -3 2 -3 -12 0 -22 5 -23 4 -10 -9 14 -13 202 -102 243 -114 9 -3 17 -10
17 -15 0 -5 -3 -8 -7 -6 -50 25 -203 95 -300 138 -67 30 -119 58 -116 63 3 5
8 5 12 -1 3 -5 23 -17 44 -25z m33 21 c-10 -6 -22 -6 -26 -2 -5 5 3 10 18 11
22 1 24 0 8 -9z m662 -7 c3 -8 -1 -12 -9 -9 -7 2 -15 10 -17 17 -3 8 1 12 9 9
7 -2 15 -10 17 -17z m-1410 -73 c18 -18 15 -38 -6 -38 -21 0 -42 18 -42 37 0
16 32 17 48 1z m92 -64 c0 -24 -21 -26 -42 -5 -16 18 -17 25 -7 37 10 13 14
12 30 -2 11 -10 19 -23 19 -30z m1410 26 c0 -5 -4 -10 -9 -10 -6 0 -13 5 -16
10 -3 6 1 10 9 10 9 0 16 -4 16 -10z m-1346 -36 c22 -8 21 -44 -2 -44 -18 0
-45 34 -35 44 8 8 17 8 37 0z m987 -60 c24 -15 48 -23 57 -19 9 3 13 3 10 -1
-12 -11 133 -75 156 -69 14 4 17 3 8 -3 -17 -11 61 -48 79 -37 7 5 10 4 5 -3
-9 -15 13 -27 27 -13 6 6 18 11 27 10 10 0 11 -2 2 -6 -6 -2 -10 -9 -7 -14 4
-5 -2 -6 -12 -2 -10 3 6 -17 35 -45 28 -27 52 -54 52 -58 0 -4 -19 10 -42 32
-64 61 -88 75 -275 159 -95 43 -173 82 -173 86 0 14 7 11 51 -17z m80 -1 c13
-16 12 -17 -3 -4 -17 13 -22 21 -14 21 2 0 10 -8 17 -17z m209 -63 c-9 -6 -10
-10 -3 -10 6 0 11 -9 10 -20 -1 -20 -27 -29 -27 -10 0 6 5 10 11 10 8 0 9 4 0
13 -11 14 -5 27 13 27 6 0 4 -5 -4 -10z m80 0 c0 -5 -7 -7 -15 -4 -8 4 -15 8
-15 10 0 2 7 4 15 4 8 0 15 -4 15 -10z m-425 -20 c3 -6 -1 -7 -9 -4 -18 7 -21
14 -7 14 6 0 13 -4 16 -10z m535 -20 c0 -5 -4 -10 -10 -10 -5 0 -10 5 -10 10
0 6 5 10 10 10 6 0 10 -4 10 -10z m-940 -164 c0 -26 5 -34 30 -43 23 -9 30
-17 30 -38 0 -20 -4 -26 -15 -21 -8 3 -22 9 -30 12 -11 5 -15 -1 -15 -20 0
-30 -7 -32 -38 -10 -14 9 -22 26 -22 43 0 22 -7 31 -31 41 -22 10 -29 18 -27
34 2 13 9 20 18 17 8 -2 24 -6 34 -9 13 -3 17 -1 12 7 -4 7 -5 18 -2 26 4 12
10 13 31 3 19 -8 25 -19 25 -42z m809 -69 c21 -23 45 -70 63 -118 25 -71 28
-93 26 -187 l-1 -107 -6 116 c-4 64 -11 123 -17 130 -6 8 -16 29 -22 47 -14
41 -75 136 -121 187 l-36 39 40 -34 c22 -19 55 -52 74 -73z m128 -31 c-4 -13
-29 -15 -38 -3 -4 5 -10 4 -13 -2 -4 -6 -2 -11 3 -11 6 0 11 -4 11 -10 0 -21
-21 -9 -40 23 -24 39 -26 54 -3 36 15 -12 16 -12 10 3 -10 27 25 28 51 0 13
-13 21 -29 19 -36z m213 40 c0 -3 -4 -8 -10 -11 -5 -3 -10 -1 -10 4 0 6 5 11
10 11 6 0 10 -2 10 -4z m-3 -68 c-3 -8 -6 -5 -6 6 -1 11 2 17 5 13 3 -3 4 -12
1 -19z m-1739 -7 c104 -54 163 -188 111 -255 -55 -70 -202 7 -249 132 -25 66
-25 83 1 116 25 32 82 35 137 7z m1177 -47 c41 -19 75 -39 75 -44 0 -6 -2 -10
-4 -10 -13 0 -176 81 -181 91 -10 15 16 6 110 -37z m75 -94 c0 -15 -3 -14
-101 35 -49 25 -87 50 -84 55 6 10 185 -76 185 -90z m-81 2 c108 -54 99 -70
-10 -19 -51 23 -95 49 -97 56 -6 17 14 11 107 -37z m438 16 c-3 -8 -6 -5 -6 6
-1 11 2 17 5 13 3 -3 4 -12 1 -19z m213 -4 c0 -8 -5 -12 -10 -9 -6 4 -8 11 -5
16 9 14 15 11 15 -7z m-10 -34 c0 -5 -5 -10 -11 -10 -5 0 -7 5 -4 10 3 6 8 10
11 10 2 0 4 -4 4 -10z m8 -66 c2 -23 -1 -33 -8 -29 -12 7 -14 65 -2 65 4 0 9
-16 10 -36z m-1417 -44 c10 -6 19 -17 19 -25 0 -12 -9 -10 -45 7 -25 12 -45
28 -45 35 0 13 26 7 71 -17z m1424 -10 c-3 -5 -11 -10 -16 -10 -6 0 -7 5 -4
10 3 6 11 10 16 10 6 0 7 -4 4 -10z m-1435 -60 c0 -6 -5 -10 -11 -10 -20 0
-49 21 -49 36 0 13 4 13 30 -1 17 -9 30 -20 30 -25z m154 5 c42 -20 76 -40 76
-45 0 -6 -4 -10 -9 -10 -19 0 -161 70 -161 80 0 16 12 13 94 -25z m1306 19 c0
-8 -5 -12 -10 -9 -6 4 -8 11 -5 16 9 14 15 11 15 -7z m-1406 -35 c25 -12 43
-39 26 -39 -20 0 -60 24 -60 37 0 16 2 16 34 2z m1396 -26 c0 -7 -4 -13 -10
-13 -5 0 -10 12 -10 28 0 21 2 24 10 12 5 -8 10 -21 10 -27z m-1302 -19 c59
-29 56 -56 -2 -29 -20 10 -36 24 -36 31 0 17 0 17 38 -2z m142 -20 c0 -12 -4
-12 -20 -4 -11 6 -20 17 -20 26 0 12 4 12 20 4 11 -6 20 -17 20 -26z m1125 27
c3 -5 1 -12 -5 -16 -5 -3 -10 1 -10 9 0 18 6 21 15 7z m-1028 -57 c29 -15 53
-33 53 -40 0 -10 -16 -6 -59 16 -59 29 -84 50 -60 50 7 0 36 -12 66 -26z m-17
-66 c0 -14 -17 -9 -90 23 -66 30 -77 39 -65 51 8 7 155 -63 155 -74z m-590 2
c44 -22 80 -45 80 -50 0 -14 2 -14 -79 25 -39 19 -76 35 -81 35 -6 0 -10 7
-10 15 0 20 0 20 90 -25z m1667 -32 c-3 -8 -6 -5 -6 6 -1 11 2 17 5 13 3 -3 4
-12 1 -19z m43 7 c0 -8 -4 -15 -10 -15 -5 0 -10 7 -10 15 0 8 5 15 10 15 6 0
10 -7 10 -15z m-1432 -115 c5 -15 -18 -8 -104 32 -35 16 -64 36 -64 43 0 17
162 -55 168 -75z m3242 80 c0 -5 -4 -10 -10 -10 -5 0 -10 5 -10 10 0 6 5 10
10 10 6 0 10 -4 10 -10z m-1833 -22 c-3 -8 -6 -5 -6 6 -1 11 2 17 5 13 3 -3 4
-12 1 -19z m43 1 c0 -5 -4 -9 -10 -9 -5 0 -10 7 -10 16 0 8 5 12 10 9 6 -3 10
-10 10 -16z m40 -13 c0 -3 -4 -8 -10 -11 -5 -3 -10 -1 -10 4 0 6 5 11 10 11 6
0 10 -2 10 -4z m1753 -23 c-7 -2 -21 -2 -30 0 -10 3 -4 5 12 5 17 0 24 -2 18
-5z m-1716 -9 c-3 -3 -12 -4 -19 -1 -8 3 -5 6 6 6 11 1 17 -2 13 -5z m-1477
-29 c7 -9 11 -18 8 -20 -9 -10 -38 7 -38 21 0 18 14 18 30 -1z m3051 3 c17
-10 23 -10 26 0 5 14 43 17 43 3 0 -5 -12 -11 -27 -14 -34 -6 -93 3 -93 14 0
13 27 11 51 -3z m-3423 -57 c3 -9 -2 -9 -22 0 -14 7 -26 19 -26 27 0 13 3 13
22 0 12 -8 24 -20 26 -27z m1939 -18 c-5 -7 -14 -10 -20 -6 -8 5 -7 8 1 11 17
5 15 22 -3 22 -21 0 -19 18 3 22 20 4 34 -30 19 -49z m1426 50 c11 -10 -13
-33 -34 -33 -22 0 -24 11 -7 28 13 13 31 16 41 5z m-181 -33 c18 -16 19 -20 6
-20 -9 0 -18 6 -21 13 -3 8 -10 7 -26 -7 -24 -22 -29 -6 -5 18 20 20 20 20 46
-4z m-5267 0 c3 -5 1 -10 -4 -10 -6 0 -11 5 -11 10 0 6 2 10 4 10 3 0 8 -4 11
-10z m2254 -67 c1 -1 1 -6 0 -12 -2 -5 -31 2 -64 16 -68 28 -87 41 -79 54 3 6
91 -29 143 -58z m-2136 50 c-13 -2 -23 -9 -23 -14 0 -5 -8 -9 -17 -9 -16 1
-16 2 1 15 11 8 29 14 40 14 19 -2 19 -2 -1 -6z m65 -32 c-7 -12 -16 -21 -21
-21 -4 0 -5 5 -2 10 3 6 -1 10 -10 10 -9 0 -13 5 -9 11 3 6 15 9 25 6 11 -3
19 0 19 6 0 6 3 8 6 5 3 -3 -1 -15 -8 -27z m-168 9 c0 -5 7 -10 15 -10 7 0 18
-8 24 -17 7 -13 12 -14 23 -6 7 6 21 7 33 2 20 -7 7 -13 -22 -10 -6 1 -14 -3
-18 -8 -3 -6 -12 -8 -20 -5 -8 4 -12 10 -9 15 5 9 -15 13 -46 10 -12 -2 -13 0
-1 7 7 6 10 15 7 21 -4 6 -2 11 3 11 6 0 11 -4 11 -10z m2106 -26 c70 -33 99
-52 90 -61 -8 -8 -176 72 -176 83 0 18 -4 19 86 -22z m3227 29 c-7 -2 -19 -2
-25 0 -7 3 -2 5 12 5 14 0 19 -2 13 -5z m-1338 -13 c3 -5 1 -10 -4 -10 -6 0
-11 5 -11 10 0 6 2 10 4 10 3 0 8 -4 11 -10z m1255 -1 c11 -8 12 -12 3 -16 -7
-2 -13 -11 -13 -19 0 -8 -4 -14 -10 -14 -14 0 -12 27 3 33 9 4 8 8 -3 16 -8 6
-10 11 -5 11 6 0 17 -5 25 -11z m-4965 -19 c-3 -5 -15 -10 -26 -10 -10 0 -19
-5 -19 -11 0 -5 4 -8 9 -4 5 3 12 1 15 -4 9 -14 -7 -21 -23 -11 -19 11 -7 38
21 43 13 2 24 5 26 6 2 0 0 -3 -3 -9z m3911 -37 c-3 -4 -14 1 -24 10 -10 10
-27 17 -38 18 -15 1 -13 3 6 8 18 6 30 3 44 -11 10 -11 15 -22 12 -25z m-1850
-3 c2 0 4 -7 4 -15 0 -19 -2 -19 -45 2 -49 24 -48 49 1 28 20 -8 38 -15 40
-15z m-276 -16 c0 -11 -5 -11 -25 -2 -14 6 -25 17 -25 24 0 11 5 11 25 2 14
-6 25 -17 25 -24z m233 -29 c70 -32 95 -50 85 -61 -3 -2 -24 6 -49 17 -24 12
-63 30 -87 40 -24 10 -40 23 -37 29 8 13 3 15 88 -25z m1872 25 c-11 -5 -27
-9 -35 -9 -9 0 -8 4 5 9 11 5 27 9 35 9 9 0 8 -4 -5 -9z m-1999 -31 c35 -16
64 -36 64 -44 0 -11 -11 -8 -48 10 -26 13 -60 29 -75 34 -16 6 -25 15 -22 21
9 14 9 14 81 -21z m261 9 c27 -13 54 -28 60 -35 7 -6 18 -13 25 -16 7 -2 10
-7 6 -11 -8 -9 -158 62 -158 75 0 14 15 11 67 -13z m1823 2 c0 -5 14 -10 30
-10 17 0 30 5 30 11 0 5 5 7 11 3 18 -11 -11 -24 -53 -24 -27 0 -38 4 -38 15
0 8 5 15 10 15 6 0 10 -4 10 -10z m-3870 -40 c0 -5 -4 -10 -9 -10 -6 0 -13 5
-16 10 -3 6 1 10 9 10 9 0 16 -4 16 -10z m75 -18 c-8 -8 -25 10 -19 20 4 6 9
5 15 -3 4 -7 6 -15 4 -17z m2633 -50 l34 -33 -22 -24 c-13 -14 -20 -31 -17
-39 8 -21 -15 -21 -53 -1 -21 11 -30 23 -30 40 0 13 -9 39 -20 57 -21 35 -25
50 -12 46 4 -2 8 1 9 6 1 5 7 12 13 16 13 8 37 -9 98 -68z m1249 72 c-3 -3
-12 -4 -19 -1 -8 3 -5 6 6 6 11 1 17 -2 13 -5z m6 -21 c-7 -2 -19 -2 -25 0 -7
3 -2 5 12 5 14 0 19 -2 13 -5z m-3820 -15 c4 -10 8 -9 16 2 9 12 11 11 11 -7
0 -13 -6 -23 -13 -23 -14 0 -37 20 -37 32 0 13 18 9 23 -4z m1385 -4 c111 -46
191 -205 132 -264 -54 -54 -183 1 -238 100 -67 123 -9 213 106 164z m397 -1
c42 -20 47 -38 8 -28 -31 7 -53 23 -53 36 0 12 4 11 45 -8z m213 -34 c45 -21
82 -42 82 -48 0 -14 5 -16 -90 27 -98 43 -110 50 -110 62 0 11 13 7 118 -41z
m1869 25 c-3 -3 -12 -4 -19 -1 -8 3 -5 6 6 6 11 1 17 -2 13 -5z m-4957 -39 c0
-8 -2 -15 -4 -15 -2 0 -6 7 -10 15 -3 8 -1 15 4 15 6 0 10 -7 10 -15z m3018
-21 c42 -20 70 -40 66 -44 -10 -10 -154 56 -154 70 0 15 7 13 88 -26z m2348 7
c0 -15 -3 -17 -13 -9 -7 6 -29 8 -48 5 -33 -5 -44 1 -28 16 3 4 25 7 48 7 34
0 41 -3 41 -19z m-336 -5 c0 -8 -4 -18 -10 -21 -5 -3 -10 3 -10 14 0 12 5 21
10 21 6 0 10 -6 10 -14z m22 -11 c-2 -14 -6 -25 -8 -25 -2 0 -4 11 -4 25 0 14
4 25 9 25 4 0 6 -11 3 -25z m6 -68 c2 -9 -2 -17 -8 -17 -7 0 -10 6 -7 14 3 8
2 17 -4 20 -5 2 -4 3 3 2 7 -1 14 -10 16 -19z m12 -47 c0 -5 -5 -10 -11 -10
-5 0 -7 5 -4 10 3 6 8 10 11 10 2 0 4 -4 4 -10z m-5404 -15 c14 -13 12 -15
-15 -15 -17 0 -31 -4 -31 -10 0 -5 -4 -10 -10 -10 -5 0 -10 11 -10 25 0 20 5
25 26 25 14 0 32 -7 40 -15z m1870 -7 c2 -3 -14 -5 -35 -6 -22 -1 -42 2 -46 7
-5 9 72 7 81 -1z m1328 -44 c15 -6 23 -34 10 -34 -13 0 -44 21 -44 30 0 11 11
13 34 4z m568 -10 c86 -20 191 -62 267 -108 116 -71 271 -204 364 -314 81 -95
193 -288 213 -366 8 -34 -8 -34 -23 2 -24 52 -135 246 -156 272 -12 15 -33 41
-47 60 -14 18 -54 64 -90 101 -53 56 -69 68 -87 63 -14 -4 -20 -11 -16 -18 26
-41 -5 -53 -53 -21 -29 19 -33 26 -20 31 9 3 13 11 9 17 -4 6 0 8 10 4 9 -3
19 -3 21 2 3 4 -8 7 -24 7 -18 0 -26 -4 -23 -12 6 -15 -34 -7 -44 9 -4 6 0 8
11 4 10 -4 15 -3 11 4 -4 5 -16 7 -27 3 -16 -5 -20 -3 -15 9 3 9 -2 21 -11 29
-13 11 -14 11 -7 -1 6 -11 4 -13 -11 -7 -10 4 -1 -9 20 -29 22 -19 46 -35 53
-35 8 0 11 -5 8 -10 -3 -6 1 -13 9 -16 9 -3 13 -10 10 -15 -3 -5 3 -6 13 -2
15 5 16 3 5 -8 -10 -11 -19 -6 -55 28 -58 58 -155 101 -242 109 -65 6 -73 5
-97 -17 -22 -20 -27 -35 -30 -86 -3 -35 -1 -63 3 -63 5 0 17 -10 29 -22 l20
-22 0 41 c0 51 27 88 57 79 12 -4 59 -41 104 -82 50 -45 98 -79 121 -86 47
-14 67 -35 70 -76 2 -25 7 -32 23 -32 30 0 45 -19 45 -57 0 -23 -6 -36 -17
-40 -10 -4 -40 -25 -66 -47 -58 -50 -57 -68 9 -138 32 -34 44 -56 45 -80 6
-112 6 -110 -23 -120 -32 -11 -30 -6 -32 -78 -1 -30 -5 -61 -10 -68 -4 -7 -2
-19 5 -28 22 -27 34 2 30 81 -2 67 -1 75 16 75 22 0 57 -28 70 -55 10 -22 9
-110 -2 -137 -5 -12 -2 -20 10 -24 27 -11 32 7 25 93 -6 73 -10 85 -34 108
-24 22 -27 33 -29 95 -1 39 0 70 3 70 16 0 93 -84 115 -125 23 -44 25 -59 25
-172 0 -102 -3 -125 -16 -130 -14 -5 -59 14 -339 147 -66 31 -136 64 -155 73
-279 126 -270 117 -270 267 0 111 -1 106 47 169 2 3 30 6 63 6 32 1 75 10 96
20 26 12 39 14 47 6 8 -8 4 -11 -13 -11 -13 0 -34 -10 -47 -22 -20 -19 -23
-31 -23 -94 0 -46 -4 -74 -12 -76 -17 -6 -2 -51 23 -66 31 -20 45 -1 27 36
-20 40 -23 148 -4 177 8 12 29 25 46 28 25 6 30 11 26 29 -3 18 -45 95 -73
137 -2 2 -6 1 -10 -2 -3 -4 2 -16 12 -27 21 -24 14 -27 -9 -4 -10 9 -14 24
-10 38 3 15 -3 30 -20 49 -14 16 -26 24 -26 18 0 -5 7 -16 15 -24 8 -8 11 -18
7 -22 -4 -5 -1 -5 6 -1 15 9 15 4 1 -28 -7 -14 -16 -23 -22 -19 -6 3 -7 1 -3
-5 3 -6 -2 -16 -11 -22 -16 -9 -15 -10 7 -8 14 2 25 8 25 15 0 23 10 19 38
-13 16 -19 23 -35 17 -39 -5 -3 -10 0 -10 7 0 7 -9 19 -20 26 -22 13 -27 3 -8
-16 7 -7 8 -12 3 -12 -6 0 -3 -4 5 -10 8 -5 11 -12 8 -15 -11 -11 -28 5 -28
26 0 10 -4 19 -10 19 -5 0 -7 -8 -3 -17 5 -15 3 -14 -10 2 -13 16 -17 17 -18
5 -1 -8 -1 -18 0 -23 1 -4 -7 -3 -16 3 -74 40 -123 59 -129 48 -4 -7 -3 -8 4
-4 7 4 12 3 12 -2 0 -4 15 -14 33 -21 25 -10 32 -19 33 -40 l1 -27 -61 32
c-34 17 -72 35 -86 38 -14 3 0 -6 30 -21 30 -14 56 -28 58 -29 2 -1 -1 -12 -8
-23 -11 -21 -30 -20 -30 0 0 6 5 7 10 4 6 -3 10 -2 10 3 0 6 -7 13 -16 16 -8
3 -13 2 -10 -3 7 -10 -22 -24 -34 -16 -4 3 -11 -2 -14 -11 -3 -9 -12 -14 -19
-11 -8 3 -19 -4 -26 -15 -10 -16 -20 -19 -45 -15 -37 6 -62 -5 -51 -22 5 -9
11 -9 23 1 15 12 16 11 4 -4 -19 -24 -49 -3 -64 45 -6 20 -15 37 -19 37 -4 0
-6 11 -4 25 1 14 -2 25 -8 25 -5 0 -7 11 -4 25 2 14 2 23 -2 19 -3 -3 -11 16
-16 43 -9 37 -17 51 -38 61 -15 7 -27 20 -27 28 0 11 4 12 19 4 27 -14 31 -13
31 8 0 11 -11 24 -25 30 -26 12 -34 32 -13 32 6 0 19 -7 27 -14 15 -14 16 -11
13 22 -2 20 3 55 10 78 l14 40 -38 19 c-45 22 -55 52 -10 33 15 -7 32 -16 39
-20 16 -12 25 6 17 36 -5 21 -3 24 15 19 15 -4 21 -1 21 11 0 10 -22 26 -60
44 -38 17 -60 33 -60 44 0 14 12 11 71 -18 64 -32 89 -36 89 -15 0 4 -18 16
-40 26 -22 10 -40 24 -40 31 0 9 16 6 55 -12 l56 -24 27 20 c79 58 240 77 384
44z m1645 -6 c-3 -8 -6 -5 -6 6 -1 11 2 17 5 13 3 -3 4 -12 1 -19z m-3804 -10
c4 -12 4 -24 2 -26 -8 -8 -36 28 -30 38 10 16 22 11 28 -12z m-1833 -18 c0 -5
-2 -10 -4 -10 -3 0 -8 5 -11 10 -3 6 -1 10 4 10 6 0 11 -4 11 -10z m-83 -16
c-3 -3 -12 -4 -19 -1 -8 3 -5 6 6 6 11 1 17 -2 13 -5z m3523 -91 c0 -16 -5
-16 -31 -3 -10 6 -19 17 -19 25 0 12 5 12 25 3 14 -6 25 -17 25 -25z m-1030 7
c0 -5 -4 -10 -9 -10 -6 0 -13 5 -16 10 -3 6 1 10 9 10 9 0 16 -4 16 -10z
m-590 -85 c-7 -9 -15 -13 -17 -11 -7 7 7 26 19 26 6 0 6 -6 -2 -15z m469 -122
c2 -97 5 -122 21 -149 49 -79 156 -112 208 -64 20 19 22 31 22 115 0 78 3 95
15 95 12 0 15 -18 15 -98 0 -105 -6 -120 -67 -151 -75 -38 -206 37 -232 134
-14 53 -19 234 -6 239 20 7 23 -6 24 -121z m-499 93 c0 -3 -4 -8 -10 -11 -5
-3 -10 -1 -10 4 0 6 5 11 10 11 6 0 10 -2 10 -4z m900 -16 c0 -5 -7 -10 -15
-10 -8 0 -15 5 -15 10 0 6 7 10 15 10 8 0 15 -4 15 -10z m1784 -66 c3 -8 2
-12 -4 -9 -6 3 -10 10 -10 16 0 14 7 11 14 -7z m-100 -36 c-6 -19 -4 -21 7
-12 25 20 49 24 42 9 -3 -8 -9 -12 -15 -9 -5 3 -15 -2 -22 -11 -12 -16 -13
-16 -19 -1 -4 9 -4 23 -1 31 9 24 16 17 8 -7z m32 -48 c0 -12 -4 -16 -9 -11
-5 5 -6 14 -3 20 10 15 12 14 12 -9z m-2646 -76 c0 -14 -3 -14 -15 -4 -8 7
-15 14 -15 16 0 2 7 4 15 4 8 0 15 -7 15 -16z m2638 -58 c-7 -8 -15 -12 -17
-11 -5 6 10 25 20 25 5 0 4 -6 -3 -14z m-1213 -56 c8 -13 -1 -13 -26 0 -10 6
-19 15 -19 21 0 11 35 -5 45 -21z m-994 -10 c33 -11 88 -21 122 -21 60 -1 62
-2 123 -58 34 -31 92 -74 129 -95 l67 -40 -7 -60 c-4 -34 -16 -80 -27 -103
-26 -57 -103 -124 -167 -147 l-53 -19 -24 29 c-44 52 -138 198 -162 249 -44
93 -89 285 -68 285 4 0 34 -9 67 -20z m1169 -75 c0 -8 -22 -1 -60 16 -33 16
-64 29 -70 29 -5 0 -10 6 -10 14 0 11 17 8 70 -16 39 -17 70 -36 70 -43z m513
48 c-3 -7 -1 -13 5 -13 6 0 18 -3 28 -7 14 -5 16 -3 11 12 -6 15 -5 16 8 5 13
-11 13 -15 3 -21 -13 -8 -63 -3 -80 7 -16 10 -8 33 11 31 11 0 17 -6 14 -14z
m-650 -39 c66 -32 114 -65 77 -52 -51 19 -160 72 -160 79 0 13 5 12 83 -27z
m570 -16 l-22 -21 6 21 c3 12 10 22 15 22 5 0 6 6 2 13 -5 9 -4 9 7 -1 11 -10
10 -16 -8 -34z m-82 -10 c11 -21 11 -22 -4 -9 -10 7 -17 17 -17 22 0 15 9 10
21 -13z m-245 -35 c-8 -8 -76 26 -76 38 0 5 18 0 41 -11 23 -12 38 -24 35 -27z
m-286 17 c8 -5 12 -11 9 -14 -7 -8 -49 5 -49 15 0 12 21 11 40 -1z m328 -98
c3 -11 -87 23 -98 37 -3 3 -14 8 -25 9 -23 4 -45 20 -45 33 0 12 163 -65 168
-79z m-160 21 c22 -9 13 -25 -10 -17 -42 12 -118 54 -118 64 0 5 26 -2 58 -16
31 -14 63 -28 70 -31z m222 32 c6 3 10 2 10 -3 0 -4 16 -16 36 -26 29 -13 34
-20 25 -29 -9 -9 -14 -9 -20 2 -6 8 -18 12 -31 8 -17 -4 -20 -2 -16 10 5 12 3
13 -7 5 -10 -8 -16 -6 -25 9 -7 10 -19 19 -27 19 -8 0 -15 7 -15 15 0 14 3 14
30 0 17 -9 35 -13 40 -10z m-117 -83 c9 -8 16 -17 14 -19 -7 -7 -77 27 -77 38
0 13 39 2 63 -19z m132 -2 c3 -6 14 -10 23 -10 21 0 122 -43 122 -52 0 -9 -18
-4 -63 15 -21 9 -44 14 -52 11 -8 -4 -17 1 -21 9 -3 8 -19 21 -35 27 -16 7
-26 16 -23 21 6 10 39 -5 49 -21z m1265 14 c0 -8 -4 -12 -10 -9 -5 3 -10 10
-10 16 0 5 5 9 10 9 6 0 10 -7 10 -16z m-3183 -60 c-9 -9 -28 6 -21 18 4 6 10
6 17 -1 6 -6 8 -13 4 -17z m1975 -52 c-13 -4 -142 57 -142 68 0 5 34 -7 75
-27 42 -21 72 -39 67 -41z m-452 16 c0 -11 -8 -10 -31 2 -28 16 -23 30 6 17
14 -7 25 -15 25 -19z m125 -51 c51 -28 49 -26 43 -32 -7 -7 -138 57 -138 67 0
9 40 -6 95 -35z m-6 -63 c2 -2 2 -6 -1 -9 -2 -3 -27 6 -54 18 -27 13 -64 30
-81 38 -18 8 -33 19 -33 24 0 9 152 -56 169 -71z m158 -20 c-7 -7 -77 28 -77
38 0 5 18 -1 41 -12 23 -12 39 -24 36 -26z m-277 4 c0 -11 -7 -10 -31 2 -28
16 -23 32 6 18 14 -6 25 -15 25 -20z m293 -61 c26 -11 37 -27 18 -27 -18 0
-161 73 -161 81 0 5 26 -3 58 -17 31 -15 69 -31 85 -37z m-185 18 c64 -30 88
-56 30 -31 -70 29 -108 50 -108 59 0 10 -1 11 78 -28z m341 -32 c2 -2 2 -5 -1
-8 -8 -8 -138 54 -138 65 0 7 105 -36 139 -57z m-416 1 c66 -32 114 -65 77
-52 -51 19 -160 72 -160 79 0 13 5 12 83 -27z m-1524 -24 c24 -11 50 -20 58
-20 10 0 13 -6 9 -16 -4 -9 -1 -23 5 -30 13 -16 1 -18 -21 -4 -18 11 -40 -5
-40 -31 0 -21 107 -79 146 -79 26 0 54 24 54 47 0 13 3 13 15 3 8 -7 15 -23
15 -36 0 -62 -161 -34 -256 45 -17 14 -45 34 -63 43 -36 20 -40 49 -11 78 25
25 34 25 89 0z m1767 -31 c8 -13 -1 -11 -41 8 -19 9 -35 22 -35 30 0 8 11 6
35 -8 19 -12 38 -25 41 -30z m216 -25 c27 -10 48 -22 48 -26 0 -12 -9 -9 -99
31 -47 21 -87 43 -89 49 -2 6 18 1 45 -12 26 -13 69 -31 95 -42z m-506 41 c10
-8 14 -15 7 -15 -19 0 -43 11 -43 21 0 13 14 11 36 -6z m299 -82 c22 -13 35
-23 29 -23 -20 0 -164 70 -164 80 0 10 61 -16 135 -57z m-181 26 c36 -17 66
-35 66 -39 0 -11 -139 52 -140 63 0 10 2 10 74 -24z m270 1 c56 -26 90 -50 71
-50 -10 0 -145 70 -145 75 0 8 6 6 74 -25z m-2311 4 c-7 -3 -9 -12 -6 -20 3
-8 0 -14 -6 -14 -6 0 -11 9 -11 20 0 13 6 20 18 19 9 0 12 -3 5 -5z m236 2
c-2 -2 -17 -6 -34 -10 -22 -5 -26 -4 -15 4 14 9 59 15 49 6z m-104 -36 c3 -5
1 -10 -4 -10 -6 0 -11 5 -11 10 0 6 2 10 4 10 3 0 8 -4 11 -10z m505 -20 c8
-5 12 -12 9 -15 -8 -8 -39 5 -39 16 0 11 11 11 30 -1z m1541 -16 c17 -8 29
-18 26 -20 -6 -6 -67 23 -67 31 0 8 10 6 41 -11z m-2268 0 c9 -10 -16 -32 -31
-27 -9 4 -10 9 -1 19 12 15 22 18 32 8z m251 -11 c-15 -11 -16 -17 -7 -32 9
-14 8 -23 -3 -40 -14 -20 -14 -21 10 -11 44 16 105 59 117 82 11 21 12 21 25
3 12 -17 11 -22 -12 -46 -15 -16 -57 -40 -93 -55 -53 -23 -82 -28 -149 -28
-68 -1 -79 -3 -65 -13 9 -7 13 -13 7 -13 -13 1 -50 30 -36 30 7 0 10 16 8 44
-1 25 1 43 5 41 3 -3 29 8 57 23 38 21 66 28 103 28 45 0 49 -1 33 -13z m2249
-35 c37 -17 67 -35 67 -39 0 -8 -169 67 -185 82 -13 13 31 -3 118 -43z m-2469
27 c-4 -8 -11 -15 -16 -15 -6 0 -5 6 2 15 7 8 14 15 16 15 2 0 1 -7 -2 -15z
m2394 -54 c28 -13 52 -27 52 -32 0 -4 -31 6 -70 23 -38 17 -70 35 -70 39 0 9
4 7 88 -30z m-1785 6 c20 -9 37 -23 37 -31 0 -9 16 -22 35 -30 44 -19 47 -49
7 -70 -52 -27 -208 -27 -276 0 -15 6 -17 4 -11 -6 5 -8 4 -11 -1 -7 -5 3 -9
18 -8 34 1 15 3 40 3 55 2 63 123 94 214 55z m-643 -7 c-6 -11 -16 -20 -23
-19 -9 0 -9 2 1 6 6 2 12 11 12 19 0 8 5 14 10 14 7 0 7 -6 0 -20z m18 -19
c-13 -15 -25 -27 -26 -25 -6 4 32 53 41 54 5 0 -2 -13 -15 -29z m-40 -36 c-3
-3 -9 2 -12 12 -6 14 -5 15 5 6 7 -7 10 -15 7 -18z m269 -21 c-3 -3 -12 -4
-19 -1 -8 3 -5 6 6 6 11 1 17 -2 13 -5z m-59 -11 c-10 -2 -26 -2 -35 0 -10 3
-2 5 17 5 19 0 27 -2 18 -5z m-261 -135 c-3 -7 -5 -2 -5 12 0 14 2 19 5 13 2
-7 2 -19 0 -25z m-1 -40 c5 -7 2 -8 -6 -3 -23 14 -30 -18 -9 -38 15 -14 18
-22 10 -30 -8 -8 -15 -7 -23 2 -11 10 -9 11 7 5 18 -7 18 -6 6 9 -10 13 -17
15 -27 6 -10 -8 -14 -8 -14 0 0 6 5 11 11 11 8 0 7 6 -2 17 -12 14 -12 16 0 8
10 -6 13 -4 9 6 -7 18 28 24 38 7z m1191 -14 c-3 -3 -12 -4 -19 -1 -8 3 -5 6
6 6 11 1 17 -2 13 -5z m64 -9 c-18 -8 -36 -15 -40 -15 -13 1 45 29 59 29 8 0
0 -6 -19 -14z m-76 -35 c-27 -12 -43 -12 -25 0 8 5 22 9 30 9 10 0 8 -3 -5 -9z
m115 0 c-8 -5 -22 -10 -30 -10 -13 0 -13 1 0 10 8 5 22 10 30 10 13 0 13 -1 0
-10z m-1330 -30 c0 -5 -7 -7 -15 -4 -8 4 -12 10 -9 15 6 11 24 2 24 -11z
m1385 10 c3 -5 2 -10 -4 -10 -5 0 -13 5 -16 10 -3 6 -2 10 4 10 5 0 13 -4 16
-10z m-115 -9 c-8 -5 -26 -11 -40 -15 -21 -5 -20 -3 5 9 32 15 60 20 35 6z
m217 3 c-3 -3 -12 -4 -19 -1 -8 3 -5 6 6 6 11 1 17 -2 13 -5z m3428 -3 c3 -5
0 -13 -6 -17 -8 -5 -9 -3 -4 6 6 10 4 12 -8 7 -9 -3 -19 -2 -22 3 -4 6 3 10
14 10 11 0 22 -4 26 -9z m-3584 -16 c-18 -8 -41 -15 -50 -14 -9 0 0 7 19 14
47 18 74 18 31 0z m-1301 -22 c0 -22 -2 -25 -10 -13 -13 20 -13 40 0 40 6 0
10 -12 10 -27z m1370 23 c0 -11 -19 -15 -25 -6 -3 5 1 10 9 10 9 0 16 -2 16
-4z m139 0 c-2 -2 -20 -6 -39 -10 -25 -4 -31 -3 -20 4 14 9 69 15 59 6z
m-1463 -26 c0 -12 -4 -16 -9 -11 -5 5 -6 14 -3 20 10 15 12 14 12 -9z m2649 2
c-3 -3 -11 0 -18 7 -9 10 -8 11 6 5 10 -3 15 -9 12 -12z m-1180 -12 c3 -6 -1
-7 -9 -4 -18 7 -21 14 -7 14 6 0 13 -4 16 -10z m-225 -9 c0 -5 -9 -7 -20 -4
-11 3 -20 7 -20 9 0 2 9 4 20 4 11 0 20 -4 20 -9z m-1360 -17 c0 -8 -4 -12
-10 -9 -5 3 -10 10 -10 16 0 5 5 9 10 9 6 0 10 -7 10 -16z m1663 9 c-7 -2 -19
-2 -25 0 -7 3 -2 5 12 5 14 0 19 -2 13 -5z m-48 -13 c-3 -5 -12 -10 -18 -10
-7 0 -6 4 3 10 19 12 23 12 15 0z m3262 -16 c-3 -3 -12 -4 -19 -1 -8 3 -5 6 6
6 11 1 17 -2 13 -5z m-4867 -24 c0 -11 5 -20 10 -20 6 0 10 -4 10 -10 0 -5 -8
-10 -19 -10 -18 0 -36 42 -23 55 11 11 22 4 22 -15z m4705 0 c-3 -5 -10 -10
-16 -10 -5 0 -9 5 -9 10 0 6 7 10 16 10 8 0 12 -4 9 -10z m-4648 -81 c-1 -11
-9 -19 -19 -19 -25 0 -23 35 1 37 14 1 19 -4 18 -18z m73 -9 c0 -5 -2 -10 -4
-10 -3 0 -8 5 -11 10 -3 6 -1 10 4 10 6 0 11 -4 11 -10z m4417 -52 c-3 -7 -5
-2 -5 12 0 14 2 19 5 13 2 -7 2 -19 0 -25z m-4780 -2 c-5 -16 -27 -19 -27 -3
0 7 7 14 15 14 9 0 14 -5 12 -11z m163 -26 c0 -5 -7 -10 -15 -10 -8 0 -15 5
-15 10 0 6 7 10 15 10 8 0 15 -4 15 -10z m-56 -32 c14 -9 1 -22 -13 -13 -6 3
-11 16 -10 28 0 15 2 17 6 7 3 -8 11 -18 17 -22z m-98 -15 c-10 -10 -19 5 -10
18 6 11 8 11 12 0 2 -7 1 -15 -2 -18z m4785 -250 c13 -16 12 -17 -3 -4 -17 13
-22 21 -14 21 2 0 10 -8 17 -17z"/>
<path d="M3621 4102 l-21 -30 25 -16 c21 -14 25 -14 39 0 14 14 18 13 41 -12
16 -17 23 -34 19 -46 -3 -10 -1 -18 5 -18 15 0 23 37 16 69 -7 34 -40 67 -76
76 -22 5 -30 1 -48 -23z"/>
<path d="M3600 4040 c0 -18 30 -70 40 -70 13 0 13 4 -7 45 -16 34 -33 46 -33
25z"/>
<path d="M3732 3962 c-7 -5 -10 -16 -6 -27 7 -17 8 -17 21 1 22 30 14 44 -15
26z"/>
<path d="M3624 3951 c7 -11 46 -35 46 -28 0 3 -12 12 -26 22 -15 9 -23 12 -20
6z"/>
<path d="M3681 3915 c4 -3 19 -8 35 -11 16 -3 26 -2 23 1 -4 3 -19 8 -35 11
-16 3 -26 2 -23 -1z"/>
<path d="M3626 3148 c-26 -41 -29 -75 -10 -107 18 -30 34 -40 34 -21 0 5 -9
25 -20 45 l-20 35 26 -6 c17 -4 29 -2 35 7 8 11 14 8 33 -15 27 -33 39 -78 24
-87 -11 -7 -2 -29 12 -29 4 0 13 13 18 29 9 25 8 29 -5 24 -12 -5 -14 -1 -8
16 25 80 -77 173 -119 109z"/>
<path d="M4910 2777 c0 -3 32 -29 71 -58 l71 -53 -27 -23 c-18 -16 -21 -23
-11 -23 9 0 16 4 16 9 0 5 12 13 27 18 l26 9 -59 45 c-71 55 -114 83 -114 76z"/>
<path d="M4395 2610 c-3 -6 1 -7 9 -4 18 7 21 14 7 14 -6 0 -13 -4 -16 -10z"/>
<path d="M5035 2610 c-3 -6 1 -7 9 -4 18 7 21 14 7 14 -6 0 -13 -4 -16 -10z"/>
<path d="M4531 2543 c7 -10 15 -20 16 -22 2 -2 3 3 3 11 0 9 -7 19 -16 22 -15
6 -15 4 -3 -11z"/>
<path d="M4533 2425 c0 -8 7 -15 15 -15 12 0 12 3 2 15 -7 8 -13 15 -15 15 -1
0 -2 -7 -2 -15z"/>
<path d="M4246 2415 c10 -8 26 -14 34 -14 9 0 4 6 -10 14 -33 19 -49 19 -24 0z"/>
<path d="M4435 2420 c-4 -6 -16 -8 -28 -5 -14 4 -10 -1 11 -14 36 -23 57 -28
29 -7 -18 14 -18 15 0 25 10 6 13 11 6 11 -6 0 -15 -5 -18 -10z"/>
<path d="M4190 2396 c0 -2 7 -7 16 -10 8 -3 12 -2 9 4 -6 10 -25 14 -25 6z"/>
<path d="M4300 2394 c0 -8 72 -36 78 -30 3 3 0 6 -7 6 -7 0 -10 4 -7 9 4 5 -3
7 -14 4 -11 -3 -20 0 -20 6 0 6 -7 11 -15 11 -8 0 -15 -2 -15 -6z"/>
<path d="M4480 2370 c20 -13 43 -13 35 0 -3 6 -16 10 -28 10 -18 0 -19 -2 -7
-10z"/>
<path d="M4303 2306 c11 -8 15 -20 11 -32 -4 -14 -3 -16 4 -5 5 7 15 16 21 20
6 4 -4 12 -22 19 -27 10 -29 9 -14 -2z"/>
<path d="M4150 2285 c-11 -13 -10 -14 4 -9 9 3 16 10 16 15 0 13 -6 11 -20 -6z"/>
<path d="M4250 2290 c-12 -8 -10 -10 8 -10 13 0 20 4 17 10 -7 12 -6 12 -25 0z"/>
<path d="M4155 2261 c-3 -2 -5 -9 -5 -15 0 -6 5 -4 10 4 8 12 10 9 10 -14 0
-28 1 -28 24 -12 15 9 26 12 30 5 2 -5 3 -4 2 3 -2 7 -13 12 -25 11 -23 -3
-29 12 -8 20 6 3 2 4 -11 4 -13 -1 -25 -3 -27 -6z"/>
<path d="M4673 2175 c7 -14 16 -25 20 -25 5 0 5 -9 2 -20 -4 -12 -2 -20 5 -20
6 0 9 4 5 9 -3 5 -1 12 5 16 5 3 10 1 10 -5 0 -6 3 -9 8 -6 13 8 44 -22 37
-36 -6 -10 -5 -10 6 0 12 12 10 16 -11 30 -14 9 -40 31 -58 49 -41 40 -44 40
-29 8z"/>
<path d="M4705 2091 c-3 -5 -1 -12 5 -16 5 -3 10 1 10 9 0 18 -6 21 -15 7z"/>
<path d="M4720 2045 c0 -8 2 -15 4 -15 2 0 6 7 10 15 3 8 1 15 -4 15 -6 0 -10
-7 -10 -15z"/>
<path d="M4740 1970 c0 -5 5 -10 10 -10 6 0 10 5 10 10 0 6 -4 10 -10 10 -5 0
-10 -4 -10 -10z"/>
<path d="M4785 1860 c3 -5 8 -10 11 -10 2 0 4 5 4 10 0 6 -5 10 -11 10 -5 0
-7 -4 -4 -10z"/>
<path d="M4811 1839 c-7 -12 -10 -23 -8 -26 3 -3 11 5 17 17 15 28 8 35 -9 9z"/>
<path d="M2844 2200 c8 -71 41 -148 101 -239 75 -112 66 -106 117 -83 56 25
106 77 117 122 23 92 26 84 -37 123 -31 19 -72 50 -90 68 -27 27 -41 33 -85
34 -29 2 -70 10 -91 19 l-39 16 7 -60z m178 -46 c25 -13 29 -20 26 -46 -4 -26
-1 -31 34 -45 32 -13 38 -20 38 -44 0 -33 -1 -34 -39 -14 -31 15 -43 11 -34
-11 3 -8 2 -21 -1 -29 -5 -14 -9 -14 -36 0 -26 14 -29 19 -25 49 5 30 3 34
-35 51 -31 14 -40 24 -40 43 0 25 -2 25 58 6 16 -5 18 -1 14 25 -5 36 -2 37
40 15z"/>
<path d="M2469 1453 c-13 -16 -12 -17 4 -4 16 13 21 21 13 21 -2 0 -10 -8 -17
-17z"/>
<path d="M6310 5320 c0 -5 7 -10 16 -10 8 0 12 5 9 10 -3 6 -10 10 -16 10 -5
0 -9 -4 -9 -10z"/>
<path d="M6248 5273 c6 -2 18 -2 25 0 6 3 1 5 -13 5 -14 0 -19 -2 -12 -5z"/>
<path d="M6050 5196 c0 -2 7 -6 15 -10 8 -3 15 -1 15 4 0 6 -7 10 -15 10 -8 0
-15 -2 -15 -4z"/>
<path d="M5760 5090 c0 -5 5 -10 10 -10 6 0 10 5 10 10 0 6 -4 10 -10 10 -5 0
-10 -4 -10 -10z"/>
<path d="M5673 5056 c1 -11 9 -21 17 -23 10 -3 11 -2 4 4 -6 4 -14 15 -17 23
-5 11 -6 9 -4 -4z"/>
<path d="M5861 5054 c0 -11 3 -14 6 -6 3 7 2 16 -1 19 -3 4 -6 -2 -5 -13z"/>
<path d="M6427 5034 c-6 -6 23 -54 48 -79 16 -17 65 -34 125 -44 30 -4 219
-38 419 -75 199 -37 370 -66 379 -64 9 2 -53 16 -138 31 -184 33 -669 126
-723 139 -36 8 -85 52 -97 84 -3 8 -9 12 -13 8z"/>
<path d="M5565 4980 c3 -5 8 -10 11 -10 2 0 4 5 4 10 0 6 -5 10 -11 10 -5 0
-7 -4 -4 -10z"/>
<path d="M5360 4930 c0 -5 18 -10 40 -10 22 0 40 5 40 10 0 6 -18 10 -40 10
-22 0 -40 -4 -40 -10z"/>
<path d="M5480 4910 c8 -5 22 -9 30 -9 10 0 8 3 -5 9 -27 12 -43 12 -25 0z"/>
<path d="M5355 4900 c-7 -11 2 -30 13 -30 4 0 13 9 20 20 11 17 10 20 -7 20
-11 0 -23 -4 -26 -10z"/>
<path d="M5440 4890 c0 -5 5 -10 11 -10 5 0 7 5 4 10 -3 6 -8 10 -11 10 -2 0
-4 -4 -4 -10z"/>
<path d="M5191 4814 c0 -11 3 -14 6 -6 3 7 2 16 -1 19 -3 4 -6 -2 -5 -13z"/>
<path d="M5100 4776 c-6 -8 -18 -12 -26 -9 -8 3 -14 -1 -14 -8 0 -11 -3 -11
-10 1 -5 8 -10 11 -10 5 0 -20 17 -38 24 -26 10 16 43 13 50 -4 4 -12 0 -14
-19 -9 -33 8 -32 -1 3 -19 28 -14 29 -13 25 12 -3 14 -4 36 -4 49 1 26 -2 27
-19 8z"/>
<path d="M7184 4764 c-10 -8 -13 -12 -6 -9 8 4 26 11 40 15 22 7 23 8 6 9 -11
1 -29 -6 -40 -15z"/>
<path d="M7308 4763 c7 -3 16 -2 19 1 4 3 -2 6 -13 5 -11 0 -14 -3 -6 -6z"/>
<path d="M5140 4750 c8 -5 24 -10 34 -10 26 0 18 6 -19 14 -22 5 -26 4 -15 -4z"/>
<path d="M5758 4753 c7 -3 16 -2 19 1 4 3 -2 6 -13 5 -11 0 -14 -3 -6 -6z"/>
<path d="M7228 4753 c7 -3 16 -2 19 1 4 3 -2 6 -13 5 -11 0 -14 -3 -6 -6z"/>
<path d="M5420 4724 c-11 -12 -10 -18 5 -32 18 -16 18 -16 6 1 -11 14 -11 20
-1 32 7 8 10 15 7 15 -2 0 -10 -7 -17 -16z"/>
<path d="M5040 4709 c0 -5 5 -7 10 -4 6 3 10 8 10 11 0 2 -4 4 -10 4 -5 0 -10
-5 -10 -11z"/>
<path d="M5458 4703 c6 -2 18 -2 25 0 6 3 1 5 -13 5 -14 0 -19 -2 -12 -5z"/>
<path d="M6134 4698 c10 -6 22 -6 26 -2 5 5 -3 10 -18 11 -22 1 -24 0 -8 -9z"/>
<path d="M5060 4690 c0 -5 5 -10 10 -10 6 0 10 5 10 10 0 6 -4 10 -10 10 -5 0
-10 -4 -10 -10z"/>
<path d="M6008 4673 c7 -3 16 -2 19 1 4 3 -2 6 -13 5 -11 0 -14 -3 -6 -6z"/>
<path d="M6338 4673 c7 -3 16 -2 19 1 4 3 -2 6 -13 5 -11 0 -14 -3 -6 -6z"/>
<path d="M5352 4430 c0 -14 2 -19 5 -12 2 6 2 18 0 25 -3 6 -5 1 -5 -13z"/>
<path d="M5521 4234 c0 -11 3 -14 6 -6 3 7 2 16 -1 19 -3 4 -6 -2 -5 -13z"/>
<path d="M5545 4225 c-5 -11 -10 -24 -13 -30 -3 -5 3 -3 13 7 9 9 15 22 12 30
-3 9 -7 7 -12 -7z"/>
<path d="M5520 4159 c0 -11 5 -17 10 -14 6 3 10 13 10 21 0 8 -4 14 -10 14 -5
0 -10 -9 -10 -21z"/>
<path d="M5560 4164 c0 -8 5 -12 10 -9 6 4 8 11 5 16 -9 14 -15 11 -15 -7z"/>
<path d="M5581 4134 c0 -11 3 -14 6 -6 3 7 2 16 -1 19 -3 4 -6 -2 -5 -13z"/>
<path d="M5542 4090 c0 -14 2 -19 5 -12 2 6 2 18 0 25 -3 6 -5 1 -5 -13z"/>
<path d="M5505 4090 c-3 -5 -1 -10 4 -10 6 0 11 5 11 10 0 6 -2 10 -4 10 -3 0
-8 -4 -11 -10z"/>
<path d="M5541 3934 c0 -11 3 -14 6 -6 3 7 2 16 -1 19 -3 4 -6 -2 -5 -13z"/>
<path d="M5600 3910 c0 -5 5 -10 11 -10 5 0 7 5 4 10 -3 6 -8 10 -11 10 -2 0
-4 -4 -4 -10z"/>
<path d="M7373 3683 c9 -2 23 -2 30 0 6 3 -1 5 -18 5 -16 0 -22 -2 -12 -5z"/>
<path d="M7300 3662 c0 -10 41 -24 49 -17 6 7 0 11 -26 19 -13 4 -23 3 -23 -2z"/>
<path d="M5620 3616 c0 -2 9 -6 20 -9 11 -3 18 -1 14 4 -5 9 -34 13 -34 5z"/>
<path d="M7260 3590 c0 -5 5 -10 10 -10 6 0 10 -7 10 -15 0 -8 5 -15 10 -15
13 0 12 11 -4 33 -15 19 -26 22 -26 7z"/>
<path d="M7020 3560 c0 -5 5 -10 10 -10 6 0 10 5 10 10 0 6 -4 10 -10 10 -5 0
-10 -4 -10 -10z"/>
<path d="M5697 3549 c7 -7 15 -10 18 -7 3 3 -2 9 -12 12 -14 6 -15 5 -6 -5z"/>
<path d="M6918 3543 c7 -3 16 -2 19 1 4 3 -2 6 -13 5 -11 0 -14 -3 -6 -6z"/>
<path d="M5725 3510 c3 -5 11 -10 16 -10 6 0 7 5 4 10 -3 6 -11 10 -16 10 -6
0 -7 -4 -4 -10z"/>
<path d="M6958 3513 c6 -2 18 -2 25 0 6 3 1 5 -13 5 -14 0 -19 -2 -12 -5z"/>
<path d="M6916 3472 c-3 -6 -1 -14 5 -17 15 -10 25 3 12 16 -7 7 -13 7 -17 1z"/>
<path d="M6723 3463 c9 -2 23 -2 30 0 6 3 -1 5 -18 5 -16 0 -22 -2 -12 -5z"/>
<path d="M6568 3433 c6 -2 18 -2 25 0 6 3 1 5 -13 5 -14 0 -19 -2 -12 -5z"/>
<path d="M6768 3433 c6 -2 18 -2 25 0 6 3 1 5 -13 5 -14 0 -19 -2 -12 -5z"/>
<path d="M6660 3410 c0 -5 4 -10 9 -10 6 0 13 5 16 10 3 6 -1 10 -9 10 -9 0
-16 -4 -16 -10z"/>
<path d="M5928 3403 c7 -3 16 -2 19 1 4 3 -2 6 -13 5 -11 0 -14 -3 -6 -6z"/>
<path d="M6560 3384 l-85 -13 80 6 c44 2 84 9 90 14 5 5 7 8 5 8 -3 -1 -43 -8
-90 -15z"/>
<path d="M6020 3369 c0 -5 5 -7 10 -4 6 3 10 8 10 11 0 2 -4 4 -10 4 -5 0 -10
-5 -10 -11z"/>
<path d="M6840 3343 c0 -13 50 -32 66 -26 25 9 15 26 -11 19 -14 -4 -25 -2
-25 4 0 5 -7 10 -15 10 -8 0 -15 -3 -15 -7z"/>
<path d="M6598 3333 c7 -3 16 -2 19 1 4 3 -2 6 -13 5 -11 0 -14 -3 -6 -6z"/>
<path d="M6035 3320 c-3 -5 -2 -10 4 -10 5 0 13 5 16 10 3 6 2 10 -4 10 -5 0
-13 -4 -16 -10z"/>
<path d="M6557 3313 c4 -9 -6 -13 -36 -13 -23 0 -41 -4 -41 -10 0 -15 41 -11
85 9 39 17 39 18 13 23 -19 4 -25 1 -21 -9z"/>
<path d="M6638 3313 c7 -3 16 -2 19 1 4 3 -2 6 -13 5 -11 0 -14 -3 -6 -6z"/>
<path d="M6673 3308 c-18 -6 -33 -15 -33 -21 0 -5 7 -6 16 -3 9 3 27 9 40 12
13 3 24 10 24 15 0 11 -5 10 -47 -3z"/>
<path d="M6316 3296 c3 -8 13 -17 22 -21 13 -5 13 -2 -3 15 -21 24 -26 25 -19
6z"/>
<path d="M6748 3303 c6 -2 18 -2 25 0 6 3 1 5 -13 5 -14 0 -19 -2 -12 -5z"/>
<path d="M6153 3288 c16 -10 97 -10 97 0 0 4 -24 7 -54 7 -30 0 -49 -3 -43 -7z"/>
<path d="M6450 3290 c0 -5 5 -10 11 -10 5 0 7 5 4 10 -3 6 -8 10 -11 10 -2 0
-4 -4 -4 -10z"/>
<path d="M6600 3290 c0 -5 7 -7 15 -4 8 4 15 8 15 10 0 2 -7 4 -15 4 -8 0 -15
-4 -15 -10z"/>
<path d="M6450 3260 c0 -5 7 -10 15 -10 8 0 15 5 15 10 0 6 -7 10 -15 10 -8 0
-15 -4 -15 -10z"/>
<path d="M6495 3260 c-4 -6 8 -10 30 -10 24 0 34 -4 29 -11 -4 -7 2 -6 17 2
23 12 23 12 4 20 -29 11 -73 11 -80 -1z"/>
<path d="M2170 3195 c0 -8 5 -15 10 -15 6 0 10 7 10 15 0 8 -4 15 -10 15 -5 0
-10 -7 -10 -15z"/>
<path d="M2110 3184 c0 -8 5 -12 10 -9 6 3 10 10 10 16 0 5 -4 9 -10 9 -5 0
-10 -7 -10 -16z"/>
<path d="M6362 3155 c-28 -32 -27 -33 3 -27 19 3 23 8 15 16 -6 9 -6 16 2 24
7 7 10 12 7 12 -3 0 -15 -11 -27 -25z"/>
<path d="M2205 3150 c-3 -5 -1 -10 4 -10 6 0 11 5 11 10 0 6 -2 10 -4 10 -3 0
-8 -4 -11 -10z"/>
<path d="M2240 3145 c0 -8 4 -15 10 -15 5 0 7 7 4 15 -4 8 -8 15 -10 15 -2 0
-4 -7 -4 -15z"/>
<path d="M1191 3104 c0 -11 3 -14 6 -6 3 7 2 16 -1 19 -3 4 -6 -2 -5 -13z"/>
<path d="M6392 3085 c0 -16 2 -22 5 -12 2 9 2 23 0 30 -3 6 -5 -1 -5 -18z"/>
<path d="M1325 3070 c-3 -5 -15 -10 -26 -10 -24 0 -25 -15 -1 -17 10 -1 24 7
30 18 7 10 10 19 8 19 -3 0 -8 -4 -11 -10z"/>
<path d="M945 3010 c3 -5 8 -10 11 -10 2 0 4 5 4 10 0 6 -5 10 -11 10 -5 0 -7
-4 -4 -10z"/>
<path d="M1184 2999 c-3 -5 9 -9 25 -9 17 0 31 2 31 4 0 8 -51 13 -56 5z"/>
<path d="M6345 3000 c-3 -5 -1 -10 4 -10 6 0 11 5 11 10 0 6 -2 10 -4 10 -3 0
-8 -4 -11 -10z"/>
<path d="M6390 2978 c0 -16 5 -28 10 -28 13 0 13 20 0 40 -8 12 -10 9 -10 -12z"/>
<path d="M6347 2973 c-8 -13 5 -63 14 -57 12 7 12 51 0 59 -5 3 -12 2 -14 -2z"/>
<path d="M2390 2925 c0 -8 2 -15 4 -15 2 0 6 7 10 15 3 8 1 15 -4 15 -6 0 -10
-7 -10 -15z"/>
<path d="M988 2913 c7 -3 16 -2 19 1 4 3 -2 6 -13 5 -11 0 -14 -3 -6 -6z"/>
<path d="M6395 2909 c-4 -6 -5 -12 -2 -15 2 -3 7 2 10 11 7 17 1 20 -8 4z"/>
<path d="M6350 2870 c0 -5 11 -10 25 -10 14 0 25 5 25 10 0 6 -11 10 -25 10
-14 0 -25 -4 -25 -10z"/>
<path d="M668 2813 c7 -3 16 -2 19 1 4 3 -2 6 -13 5 -11 0 -14 -3 -6 -6z"/>
<path d="M608 2773 c6 -2 18 -2 25 0 6 3 1 5 -13 5 -14 0 -19 -2 -12 -5z"/>
<path d="M655 2760 c3 -5 8 -10 11 -10 2 0 4 5 4 10 0 6 -5 10 -11 10 -5 0 -7
-4 -4 -10z"/>
<path d="M675 2724 c9 -9 19 -13 23 -10 3 4 0 11 -8 16 -24 15 -33 11 -15 -6z"/>
<path d="M578 2713 c-28 -7 -21 -21 7 -15 14 2 25 8 25 13 0 9 -4 10 -32 2z"/>
<path d="M460 2700 c0 -5 5 -10 10 -10 6 0 10 5 10 10 0 6 -4 10 -10 10 -5 0
-10 -4 -10 -10z"/>
<path d="M470 2613 c0 -5 22 -8 49 -8 27 0 47 3 44 8 -2 4 -24 7 -49 7 -24 0
-44 -3 -44 -7z"/>
<path d="M2315 2510 c3 -5 8 -10 11 -10 2 0 4 5 4 10 0 6 -5 10 -11 10 -5 0
-7 -4 -4 -10z"/>
<path d="M2296 2353 c-6 -14 -5 -15 5 -6 7 7 10 15 7 18 -3 3 -9 -2 -12 -12z"/>
<path d="M2320 2360 c0 -5 4 -10 9 -10 6 0 13 5 16 10 3 6 -1 10 -9 10 -9 0
-16 -4 -16 -10z"/>
<path d="M1198 2013 c6 -2 18 -2 25 0 6 3 1 5 -13 5 -14 0 -19 -2 -12 -5z"/>
<path d="M1240 2006 c0 -2 11 -6 25 -8 13 -3 22 -1 19 3 -5 9 -44 13 -44 5z"/>
<path d="M1305 1980 c3 -5 8 -10 11 -10 2 0 4 5 4 10 0 6 -5 10 -11 10 -5 0
-7 -4 -4 -10z"/>
<path d="M1710 1581 c0 -9 24 -21 41 -21 5 0 9 7 9 15 0 9 -9 15 -25 15 -14 0
-25 -4 -25 -9z"/>
<path d="M1365 1541 c-3 -5 -1 -12 5 -16 5 -3 10 1 10 9 0 18 -6 21 -15 7z"/>
<path d="M1372 1480 c0 -19 2 -27 5 -17 2 9 2 25 0 35 -3 9 -5 1 -5 -18z"/>
<path d="M23 1483 c9 -2 23 -2 30 0 6 3 -1 5 -18 5 -17 0 -22 -2 -12 -5z"/>
<path d="M7100 1213 l0 -261 83 -16 c45 -8 109 -22 143 -29 34 -7 66 -11 73
-9 8 3 11 41 10 133 -1 88 -4 127 -12 122 -6 -4 -7 -1 -2 8 10 15 15 52 7 44
-3 -3 -12 1 -21 8 -14 11 -15 10 -1 -7 10 -13 11 -17 2 -12 -7 4 -20 2 -29 -6
-14 -11 -16 -11 -9 1 7 10 3 12 -15 7 -18 -4 -17 -2 5 8 l29 13 -44 0 c-32 0
-38 -2 -24 -8 14 -5 1 -8 -40 -10 l-60 -2 60 -7 c33 -4 53 -7 45 -8 -13 -2
-13 -3 0 -12 21 -13 39 -12 20 1 -12 9 -12 10 3 5 10 -3 24 -6 30 -7 7 0 3 -4
-8 -9 -11 -4 -45 -6 -75 -3 -94 9 -95 8 -98 -29 -4 -48 -22 -60 -22 -15 0 48
-18 48 -22 0 -3 -34 -4 -33 -8 14 -3 33 -2 49 5 43 14 -15 29 -12 16 3 -6 8
-8 17 -4 21 4 4 0 4 -9 1 -18 -7 -19 9 -4 34 6 9 5 12 0 8 -6 -3 -11 40 -12
111 -5 213 -12 129 -12 -135z m125 -83 c-3 -5 -10 -10 -16 -10 -5 0 -9 5 -9
10 0 6 7 10 16 10 8 0 12 -4 9 -10z"/>
<path d="M1371 1384 c0 -11 3 -14 6 -6 3 7 2 16 -1 19 -3 4 -6 -2 -5 -13z"/>
<path d="M1575 1320 c-3 -5 1 -10 10 -10 9 0 13 5 10 10 -3 6 -8 10 -10 10 -2
0 -7 -4 -10 -10z"/>
<path d="M7368 1313 c7 -3 16 -2 19 1 4 3 -2 6 -13 5 -11 0 -14 -3 -6 -6z"/>
<path d="M6560 1290 c13 -9 13 -10 0 -10 -13 0 -13 -2 0 -9 8 -6 18 -7 23 -4
10 6 -11 33 -27 33 -6 0 -4 -5 4 -10z"/>
<path d="M7356 1291 c-4 -5 3 -7 14 -4 23 6 26 13 6 13 -8 0 -17 -4 -20 -9z"/>
<path d="M6293 1275 c0 -8 4 -12 9 -9 5 3 6 10 3 15 -9 13 -12 11 -12 -6z"/>
<path d="M7267 1273 c-4 -3 -2 -12 4 -20 9 -10 7 -13 -11 -13 -13 0 -21 -3
-17 -6 9 -9 67 6 67 17 0 6 -4 7 -10 4 -5 -3 -15 -3 -21 1 -8 4 -7 9 2 15 8 5
9 9 3 9 -6 0 -14 -3 -17 -7z"/>
<path d="M7318 1273 c7 -3 16 -2 19 1 4 3 -2 6 -13 5 -11 0 -14 -3 -6 -6z"/>
<path d="M6485 1250 c-3 -6 1 -7 9 -4 18 7 21 14 7 14 -6 0 -13 -4 -16 -10z"/>
<path d="M1468 1243 c7 -3 16 -2 19 1 4 3 -2 6 -13 5 -11 0 -14 -3 -6 -6z"/>
<path d="M1548 1243 c7 -3 16 -2 19 1 4 3 -2 6 -13 5 -11 0 -14 -3 -6 -6z"/>
<path d="M1590 1240 c-9 -6 -10 -10 -3 -10 6 0 15 5 18 10 8 12 4 12 -15 0z"/>
<path d="M6316 1241 c-4 -5 3 -7 14 -4 23 6 26 13 6 13 -8 0 -17 -4 -20 -9z"/>
<path d="M7380 1240 c-23 -7 -23 -8 -3 -9 12 -1 25 4 28 9 3 6 5 10 3 9 -2 -1
-14 -5 -28 -9z"/>
<path d="M1435 1230 c3 -5 8 -10 11 -10 2 0 4 5 4 10 0 6 -5 10 -11 10 -5 0
-7 -4 -4 -10z"/>
<path d="M6418 1233 c12 -2 30 -2 40 0 9 3 -1 5 -23 4 -22 0 -30 -2 -17 -4z"/>
<path d="M7160 1236 c0 -2 7 -6 15 -10 8 -3 15 -1 15 4 0 6 -7 10 -15 10 -8 0
-15 -2 -15 -4z"/>
<path d="M1502 1221 c-11 -6 -10 -10 4 -15 9 -3 19 -4 22 -1 3 3 0 5 -7 5 -7
0 -9 5 -6 10 7 12 4 12 -13 1z"/>
<path d="M6388 1213 c7 -3 16 -2 19 1 4 3 -2 6 -13 5 -11 0 -14 -3 -6 -6z"/>
<path d="M7138 1213 c7 -3 16 -2 19 1 4 3 -2 6 -13 5 -11 0 -14 -3 -6 -6z"/>
<path d="M1553 1195 c0 -9 4 -14 9 -13 5 2 10 8 10 13 0 5 -5 11 -10 13 -5 1
-9 -4 -9 -13z"/>
<path d="M1444 1182 c2 -9 11 -18 22 -19 19 -2 19 -2 0 4 -13 3 -15 7 -7 13
10 5 9 9 -2 13 -10 4 -14 0 -13 -11z"/>
<path d="M7173 1185 c0 -8 4 -15 9 -15 4 0 8 4 8 9 0 6 -4 12 -8 15 -5 3 -9
-1 -9 -9z"/>
<path d="M1515 1180 c-3 -5 -1 -10 4 -10 6 0 11 5 11 10 0 6 -2 10 -4 10 -3 0
-8 -4 -11 -10z"/>
<path d="M6313 1180 c2 -8 9 -15 15 -14 7 1 21 2 32 3 11 0 20 6 20 11 0 14
-37 13 -46 -1 -4 -8 -9 -7 -16 2 -8 11 -9 11 -5 -1z"/>
<path d="M6231 1113 c-7 -8 -11 -16 -8 -19 2 -2 10 2 17 11 17 20 9 27 -9 8z"/>
<path d="M1515 1110 c-3 -5 -2 -18 4 -27 7 -14 9 -12 8 10 -2 30 -3 31 -12 17z"/>
<path d="M6260 1116 c0 -2 7 -6 15 -10 8 -3 15 -1 15 4 0 6 -7 10 -15 10 -8 0
-15 -2 -15 -4z"/>
<path d="M1420 1096 c0 -8 4 -17 9 -20 5 -4 7 3 4 14 -6 23 -13 26 -13 6z"/>
<path d="M660 290 c0 -5 5 -10 10 -10 6 0 10 5 10 10 0 6 -4 10 -10 10 -5 0
-10 -4 -10 -10z"/>
<path d="M0 266 c0 -2 44 -11 98 -21 53 -10 142 -28 197 -40 55 -12 105 -19
111 -14 5 4 21 6 35 3 24 -5 24 -4 1 5 -12 6 -27 21 -32 33 -10 21 -10 21 -5
-4 4 -23 2 -28 -14 -28 -11 0 -19 6 -17 13 1 6 1 9 -1 5 -3 -5 -16 -8 -29 -8
-14 0 -23 3 -21 8 3 4 -11 7 -31 7 -21 1 -90 11 -154 23 -119 22 -138 25 -138
18z"/>
<path d="M198 263 c7 -3 16 -2 19 1 4 3 -2 6 -13 5 -11 0 -14 -3 -6 -6z"/>
<path d="M285 260 c3 -5 8 -10 11 -10 2 0 4 5 4 10 0 6 -5 10 -11 10 -5 0 -7
-4 -4 -10z"/>
<path d="M360 260 c0 -5 5 -10 10 -10 6 0 10 5 10 10 0 6 -4 10 -10 10 -5 0
-10 -4 -10 -10z"/>
<path d="M448 252 c3 -10 1 -13 -6 -8 -6 3 -14 1 -18 -5 -4 -8 -3 -9 4 -5 7 4
12 2 12 -4 0 -7 5 -7 13 2 17 15 18 35 1 35 -7 0 -10 -7 -6 -15z"/>
<path d="M636 262 c-9 -16 9 -29 29 -21 18 7 18 8 -5 8 -20 1 -22 3 -10 11 9
6 10 10 3 10 -6 0 -14 -4 -17 -8z"/>
<path d="M475 211 c-3 -5 -1 -12 5 -16 5 -3 10 -2 10 4 0 5 12 12 28 14 26 4
25 4 -5 6 -17 0 -34 -3 -38 -8z"/>
<path d="M640 206 c-6 -8 -30 -17 -53 -19 l-42 -4 45 -1 c35 -2 50 3 63 18 9
11 13 20 8 20 -5 0 -14 -7 -21 -14z"/>
<path d="M665 189 c-4 -6 -4 -13 -1 -16 3 -4 6 -1 6 5 0 6 8 13 18 15 15 4 15
5 0 6 -9 0 -20 -4 -23 -10z"/>
</g>
</svg>
